<svg width="160" height="48" viewBox="0 0 160 48" fill="none" xmlns="http://www.w3.org/2000/svg">
  <rect width="160" height="48" rx="14" fill="url(#grad)" />
  <path
    d="M32 14c-6.6 0-12 5.4-12 12s5.4 12 12 12c4.8 0 8.9-2.8 10.8-6.8l-5-2.2c-.9 2.3-3 3.9-5.8 3.9-3.5 0-6.3-2.8-6.3-6.3 0-3.5 2.8-6.3 6.3-6.3 2.7 0 5 1.6 5.8 4l5-2.2C40.9 16.9 36.8 14 32 14Z"
    fill="white"
    opacity="0.9"
  />
  <text x="56" y="29" fill="white" font-size="18" font-family="Inter, Arial, sans-serif" font-weight="700">
    castfash
  </text>
  <defs>
    <linearGradient id="grad" x1="0" y1="0" x2="160" y2="48" gradientUnits="userSpaceOnUse">
      <stop stop-color="#6366F1" />
      <stop offset="0.5" stop-color="#22D3EE" />
      <stop offset="1" stop-color="#34D399" />
    </linearGradient>
  </defs>
</svg>
